<svg width="448" height="383" viewBox="0 0 448 383" fill="none" xmlns="http://www.w3.org/2000/svg">
<rect x="12" y="338.673" width="219.633" height="73" rx="36.5" transform="rotate(-60 12 338.673)" fill="#D6D6D6"/>
<rect x="103.226" y="161" width="253" height="73" rx="36.5" fill="#D6D6D6"/>
<rect x="183.226" y="161" width="253" height="73" rx="10" fill="#D6D6D6"/>
<rect x="243.226" y="111" width="102" height="73" rx="36.5" transform="rotate(-90 243.226 111)" fill="#D6D6D6"/>
<rect x="243.226" y="148" width="102" height="73" rx="14" transform="rotate(-90 243.226 148)" fill="#D6D6D6"/>
<rect x="250.226" y="139" width="122" height="59" rx="29.5" transform="rotate(-90 250.226 139)" fill="white"/>
<rect x="424.226" y="217" width="39" height="7" rx="3.5" transform="rotate(-90 424.226 217)" fill="#30B846"/>
<rect x="250.226" y="143" width="50" height="59" rx="9" transform="rotate(-90 250.226 143)" fill="white"/>
<rect x="243.226" y="176" width="28" height="73" rx="14" transform="rotate(-90 243.226 176)" fill="#D6D6D6"/>
<rect x="76.2259" y="208.547" width="45.6646" height="19.0836" rx="9.5418" transform="rotate(-60 76.2259 208.547)" fill="#A6A6A6"/>
<rect x="75.2259" y="205.233" width="40.6835" height="15.408" rx="7.70402" transform="rotate(-60 75.2259 205.233)" fill="#838383"/>
<rect x="151.226" y="157" width="46" height="8" rx="4" fill="#B42E2E"/>
<rect x="115.226" y="169" width="275" height="59" rx="29.5" fill="#C5C5C5"/>
<rect x="359.226" y="169" width="67" height="59" rx="8" fill="#C5C5C5"/>
<rect x="271.226" y="143" width="56" height="18" transform="rotate(-90 271.226 143)" fill="#30B846"/>
<rect x="293.226" y="103.645" width="16.3325" height="6.33133" rx="3.16566" transform="rotate(-45.4785 293.226 103.645)" fill="#60CB71"/>
<rect x="261.385" y="96.7265" width="16.3325" height="6.33133" rx="3.16566" transform="rotate(-128.465 261.385 96.7265)" fill="#60CB71"/>
<rect x="292.226" y="83.9843" width="24.1271" height="4.29825" rx="2.14913" transform="rotate(-65.6696 292.226 83.9843)" fill="#60CB71"/>
<rect x="279.226" y="79.6396" width="40.0466" height="4.29825" rx="2.14913" transform="rotate(-81.8238 279.226 79.6396)" fill="#60CB71"/>
<rect x="270.467" y="82.1443" width="24.1271" height="4.29825" rx="2.14913" transform="rotate(-109.971 270.467 82.1443)" fill="#60CB71"/>
<rect x="285.068" y="62.4682" width="10.7311" height="1.56471" rx="0.782354" transform="rotate(-136.955 285.068 62.4682)" fill="#60CB71"/>
<rect x="294.06" y="48.3089" width="10.7311" height="1.56471" rx="0.782354" transform="rotate(146.77 294.06 48.3089)" fill="#60CB71"/>
<rect x="298.572" y="73.5827" width="6.70974" height="1.56471" rx="0.782354" transform="rotate(-107.753 298.572 73.5827)" fill="#60CB71"/>
<rect x="265.685" y="68.1742" width="6.70974" height="1.56471" rx="0.782354" transform="rotate(-144.449 265.685 68.1742)" fill="#60CB71"/>
<rect x="259.226" y="120" width="52" height="42" rx="21" transform="rotate(-90 259.226 120)" fill="#30B846"/>
<ellipse cx="277.226" cy="96" rx="16" ry="19" fill="#60CB71"/>
<ellipse cx="283.558" cy="89.4639" rx="16" ry="19" transform="rotate(-14.8387 283.558 89.4639)" fill="#74DD85"/>
<g filter="url(#filter0_d)">
<ellipse cx="281.018" cy="92.4639" rx="5.65167" ry="5.18962" transform="rotate(-14.8387 281.018 92.4639)" fill="#C6F5CE"/>
</g>
<defs>
<filter id="filter0_d" x="194.226" y="6" width="173.584" height="172.928" filterUnits="userSpaceOnUse" color-interpolation-filters="sRGB">
<feFlood flood-opacity="0" result="BackgroundImageFix"/>
<feColorMatrix in="SourceAlpha" type="matrix" values="0 0 0 0 0 0 0 0 0 0 0 0 0 0 0 0 0 0 127 0"/>
<feMorphology radius="60" operator="dilate" in="SourceAlpha" result="effect1_dropShadow"/>
<feOffset/>
<feGaussianBlur stdDeviation="10"/>
<feColorMatrix type="matrix" values="0 0 0 0 0.125621 0 0 0 0 0.608333 0 0 0 0 0.0836458 0 0 0 0.25 0"/>
<feBlend mode="normal" in2="BackgroundImageFix" result="effect1_dropShadow"/>
<feBlend mode="normal" in="SourceGraphic" in2="effect1_dropShadow" result="shape"/>
</filter>
</defs>
</svg>
